<svg xmlns="http://www.w3.org/2000/svg" viewBox="0 0 32 32">
  <defs>
    <linearGradient id="g" x1="0%" y1="0%" x2="100%" y2="100%">
      <stop offset="0%" stop-color="#818cf8"/>
      <stop offset="100%" stop-color="#6366f1"/>
    </linearGradient>
  </defs>
  <rect width="32" height="32" rx="8" fill="url(#g)"/>
  <path d="M16 7c-3.9 0-7 2.8-7 6.3 0 2.1 1.1 3.9 2.8 5.1v3c0 .7.3 1.1.9 1.2l2.8 1.4c.3.2.7.2 1 0l2.8-1.4c.5-.2.9-.5.9-1.2v-3c1.7-1.2 2.8-3 2.8-5.1C23 9.8 19.9 7 16 7z" fill="white" opacity="0.95"/>
  <circle cx="13.5" cy="13" r="1.3" fill="#6366f1"/>
  <circle cx="18.5" cy="13" r="1.3" fill="#6366f1"/>
</svg>
